# xmcd
#
# Track frame offsets:
#	150
#	10636
#	26881
#	42714
#	59199
#	75398
#	93606
#	114997
#	133286
#	145457
#	155936
#	174435
#	191403
#	209805
#	229158
#	246706
#
# Disc length: 3555 seconds
#
# Revision: 1
# Processed by: cddbd v1.5.2PL0 Copyright (c) Steve Scherf et al.
# Submitted via: audiograbber 1.83.01
#
DISCID=f90de110
DTITLE=Various Artist - Total relaxed
DYEAR=1900
DGENRE=Balladen
TTITLE0=J.J. Cale - Carry on
TTITLE1=The beautiful South - Rotterdam (or anywhere)
TTITLE2=Eagle-Eye Cherry - Falling in Love again
TTITLE3=Exetreme - Hole Hearted
TTITLE4=Mark David Hollis - The Colour of Spring
TTITLE5=Soraya - Suddenly
TTITLE6=Texas - Prayer for You
TTITLE7=Ugly Kid Joe - Cats in the Cradle
TTITLE8=Bobby Hebb - Sunny
TTITLE9=Etta James - Tell Mama
TTITLE10=Rod Stewart - Reason to Believe
TTITLE11=Maria McKee - Show me Heaven
TTITLE12=Wet Wet Wet - Love is all around
TTITLE13=Lori Spee, Gary Brooker - Two Fools in Love
TTITLE14=Marvin Gaye - What's going on
TTITLE15=The Moody Blues - Nights in white Satin
EXTD=
EXTT0=
EXTT1=
EXTT2=
EXTT3=
EXTT4=
EXTT5=
EXTT6=
EXTT7=
EXTT8=
EXTT9=
EXTT10=
EXTT11=
EXTT12=
EXTT13=
EXTT14=
EXTT15=
PLAYORDER=
